       <svg id="sw-js-blob-svg" viewBox="0 0 100 100" xmlns="http://www.w3.org/2000/svg">                    <defs>                         <linearGradient id="sw-gradient" x1="0" x2="1" y1="1" y2="0">                          <stop id="stop1" stop-color="#3DB2FF" offset="0%"></stop>
                            <stop id="stop2" stop-color="#1c689a" offset="100%"></stop>                        </linearGradient>                    </defs>                <path fill="url(#sw-gradient)" d="M11.2,-17.8C15.7,-14.7,21.1,-13.4,26.6,-9.7C32.1,-6,37.7,0.1,36.9,5.2C36,10.3,28.6,14.3,22.9,18.6C17.2,22.8,13.3,27.2,8,30C2.7,32.8,-3.8,34.1,-10.3,33.1C-16.9,32.1,-23.3,29,-27.1,23.9C-31,18.8,-32.1,11.8,-32.5,5C-33,-1.8,-32.8,-8.3,-30.1,-13.5C-27.4,-18.8,-22.2,-22.7,-16.8,-25.3C-11.4,-27.9,-5.7,-29.3,-1.1,-27.6C3.4,-25.8,6.8,-20.9,11.2,-17.8Z" width="100%" height="100%" transform="translate(50 50)" stroke-width="0" style="transition: all 0.3s ease 0s;"></path>              </svg>